<mxfile host="app.diagrams.net" modified="2023-04-22T00:18:26.216Z" agent="Mozilla/5.0 (Macintosh; Intel Mac OS X 10_15_7) AppleWebKit/537.36 (KHTML, like Gecko) Chrome/112.0.0.0 Safari/537.36" etag="8yvEwSBIF1FcXHMkL8ED" version="21.1.4" type="device">
  <diagram id="-CuTGTWnEKNFAuos6sQm" name="Page-1">
    <mxGraphModel dx="1272" dy="607" grid="1" gridSize="10" guides="1" tooltips="1" connect="1" arrows="1" fold="1" page="1" pageScale="1" pageWidth="827" pageHeight="1169" math="0" shadow="0">
      <root>
        <mxCell id="0" />
        <mxCell id="1" parent="0" />
        <mxCell id="rkxFK2iF5i7AjHGrBCSy-1" value="ViaThinkSoft OIDplus 2.0" style="rounded=0;whiteSpace=wrap;html=1;fontSize=30;fillColor=#d5e8d4;strokeColor=#82b366;shadow=0;" parent="1" vertex="1">
          <mxGeometry x="170" y="130" width="1380" height="80" as="geometry" />
        </mxCell>
        <mxCell id="rkxFK2iF5i7AjHGrBCSy-2" value="&lt;p style=&quot;line-height: 80%;&quot;&gt;&lt;font&gt;&lt;span style=&quot;font-size: 20px&quot;&gt;MySQLi&lt;/span&gt;&lt;br&gt;&lt;font style=&quot;font-size: 15px&quot;&gt;Database provider plugin&lt;/font&gt;&lt;/font&gt;&lt;/p&gt;" style="rounded=0;whiteSpace=wrap;html=1;fontSize=30;fillColor=#d5e8d4;strokeColor=#82b366;shadow=0;" parent="1" vertex="1">
          <mxGeometry x="170" y="210" width="180" height="100" as="geometry" />
        </mxCell>
        <mxCell id="rkxFK2iF5i7AjHGrBCSy-7" value="&lt;p style=&quot;line-height: 80%;&quot;&gt;&lt;font style=&quot;font-size: 20px&quot;&gt;PDO&lt;br&gt;&lt;span style=&quot;font-size: 15px&quot;&gt;Database provider plugin&lt;/span&gt;&lt;br&gt;&lt;/font&gt;&lt;/p&gt;" style="rounded=0;whiteSpace=wrap;html=1;fontSize=30;fillColor=#d5e8d4;strokeColor=#82b366;shadow=0;" parent="1" vertex="1">
          <mxGeometry x="970" y="210" width="180" height="100" as="geometry" />
        </mxCell>
        <mxCell id="rkxFK2iF5i7AjHGrBCSy-8" value="&lt;p style=&quot;line-height: 80%;&quot;&gt;&lt;font style=&quot;font-size: 20px&quot;&gt;ODBC&lt;br&gt;&lt;span style=&quot;font-size: 15px&quot;&gt;Database provider plugin&lt;/span&gt;&lt;br&gt;&lt;/font&gt;&lt;/p&gt;" style="rounded=0;whiteSpace=wrap;html=1;fontSize=30;fillColor=#d5e8d4;strokeColor=#82b366;shadow=0;" parent="1" vertex="1">
          <mxGeometry x="1170" y="210" width="180" height="100" as="geometry" />
        </mxCell>
        <mxCell id="rkxFK2iF5i7AjHGrBCSy-9" value="&lt;p style=&quot;line-height: 80%;&quot;&gt;&lt;span style=&quot;font-size: 20px;&quot;&gt;MySQLi&lt;/span&gt;&lt;br&gt;&lt;font style=&quot;font-size: 15px;&quot;&gt;PHP Extension&lt;/font&gt;&lt;/p&gt;" style="rounded=0;whiteSpace=wrap;html=1;fontSize=30;fillColor=#dae8fc;strokeColor=#6c8ebf;shadow=0;" parent="1" vertex="1">
          <mxGeometry x="170" y="410" width="180" height="200" as="geometry" />
        </mxCell>
        <mxCell id="rkxFK2iF5i7AjHGrBCSy-10" value="&lt;p style=&quot;line-height: 80%;&quot;&gt;&lt;span style=&quot;font-size: 20px;&quot;&gt;PDO&lt;/span&gt;&lt;br&gt;&lt;font style=&quot;font-size: 15px;&quot;&gt;PHP Extension&lt;/font&gt;&lt;/p&gt;" style="rounded=0;whiteSpace=wrap;html=1;fontSize=30;fillColor=#dae8fc;strokeColor=#6c8ebf;shadow=0;" parent="1" vertex="1">
          <mxGeometry x="970" y="410" width="180" height="100" as="geometry" />
        </mxCell>
        <mxCell id="rkxFK2iF5i7AjHGrBCSy-11" value="&lt;p style=&quot;line-height: 80%;&quot;&gt;&lt;span style=&quot;font-size: 20px;&quot;&gt;ODBC&lt;/span&gt;&lt;br&gt;&lt;font style=&quot;font-size: 15px;&quot;&gt;PHP Extension&lt;/font&gt;&lt;/p&gt;" style="rounded=0;whiteSpace=wrap;html=1;fontSize=30;fillColor=#dae8fc;strokeColor=#6c8ebf;shadow=0;" parent="1" vertex="1">
          <mxGeometry x="1170" y="410" width="180" height="120" as="geometry" />
        </mxCell>
        <mxCell id="rkxFK2iF5i7AjHGrBCSy-12" value="&lt;p style=&quot;line-height: 80%;&quot;&gt;&lt;span style=&quot;font-size: 20px&quot;&gt;PHP PDO Driver&lt;br&gt;(DBMS specific)&lt;br&gt;&lt;/span&gt;&lt;/p&gt;" style="rounded=0;whiteSpace=wrap;html=1;fontSize=30;fillColor=#dae8fc;strokeColor=#6c8ebf;shadow=0;" parent="1" vertex="1">
          <mxGeometry x="970" y="510" width="180" height="100" as="geometry" />
        </mxCell>
        <mxCell id="rkxFK2iF5i7AjHGrBCSy-13" value="&lt;p style=&quot;line-height: 80%;&quot;&gt;&lt;span style=&quot;font-size: 20px&quot;&gt;ODBC Driver&lt;br&gt;&lt;/span&gt;&lt;span style=&quot;font-size: 20px&quot;&gt;(DBMS specific)&lt;/span&gt;&lt;span style=&quot;font-size: 20px&quot;&gt;&lt;br&gt;&lt;/span&gt;&lt;/p&gt;" style="rounded=0;whiteSpace=wrap;html=1;fontSize=30;fillColor=#f8cecc;strokeColor=#b85450;shadow=0;" parent="1" vertex="1">
          <mxGeometry x="1170" y="530" width="180" height="80" as="geometry" />
        </mxCell>
        <mxCell id="rkxFK2iF5i7AjHGrBCSy-14" value="&lt;p style=&quot;line-height: 80%;&quot;&gt;&lt;span style=&quot;font-size: 20px;&quot;&gt;MySQL/MariaDB&lt;/span&gt;&lt;br&gt;&lt;font style=&quot;font-size: 15px;&quot;&gt;DBMS&lt;/font&gt;&lt;/p&gt;" style="rounded=0;whiteSpace=wrap;html=1;fontSize=30;fillColor=#fff2cc;strokeColor=#d6b656;shadow=0;" parent="1" vertex="1">
          <mxGeometry x="170" y="610" width="180" height="100" as="geometry" />
        </mxCell>
        <mxCell id="rkxFK2iF5i7AjHGrBCSy-16" value="" style="shape=flexArrow;endArrow=classic;html=1;fontSize=30;endWidth=36;endSize=7.67;width=8;shadow=0;fillColor=#D6D6D6;" parent="1" edge="1">
          <mxGeometry width="50" height="50" relative="1" as="geometry">
            <mxPoint x="130" y="130" as="sourcePoint" />
            <mxPoint x="130" y="790" as="targetPoint" />
          </mxGeometry>
        </mxCell>
        <mxCell id="rkxFK2iF5i7AjHGrBCSy-17" value="OIDplus" style="text;html=1;strokeColor=none;fillColor=none;align=center;verticalAlign=middle;whiteSpace=wrap;rounded=0;fontSize=30;rotation=90;direction=east;fontColor=#00CC00;shadow=0;" parent="1" vertex="1">
          <mxGeometry x="70" y="287" width="40" height="20" as="geometry" />
        </mxCell>
        <mxCell id="rkxFK2iF5i7AjHGrBCSy-19" value="DBMS" style="text;html=1;strokeColor=none;fillColor=none;align=center;verticalAlign=middle;whiteSpace=wrap;rounded=0;fontSize=30;rotation=90;direction=east;fontColor=#CCCC00;shadow=0;" parent="1" vertex="1">
          <mxGeometry x="30" y="640" width="100" height="20" as="geometry" />
        </mxCell>
        <mxCell id="rkxFK2iF5i7AjHGrBCSy-20" value="PHP" style="text;html=1;strokeColor=none;fillColor=none;align=center;verticalAlign=middle;whiteSpace=wrap;rounded=0;fontSize=30;rotation=90;direction=east;fontColor=#0000FF;shadow=0;" parent="1" vertex="1">
          <mxGeometry x="60" y="490" width="40" height="20" as="geometry" />
        </mxCell>
        <mxCell id="rkxFK2iF5i7AjHGrBCSy-22" value="OIDplus Database Connectivity" style="text;html=1;strokeColor=none;fillColor=none;align=center;verticalAlign=middle;whiteSpace=wrap;rounded=0;fontSize=30;fontStyle=4;shadow=0;" parent="1" vertex="1">
          <mxGeometry x="180" y="80" width="1360" height="20" as="geometry" />
        </mxCell>
        <mxCell id="aevjvMxUrnnEDrcyBwDK-1" value="&lt;p style=&quot;line-height: 80%;&quot;&gt;&lt;span style=&quot;font-size: 20px&quot;&gt;MySQL/MariaDB, PostgreSQL,&lt;br&gt;Microsoft SQL Server, SQLite3, Oracle, Microsoft Access&lt;/span&gt;&lt;/p&gt;" style="rounded=0;whiteSpace=wrap;html=1;fontSize=30;fillColor=#fff2cc;strokeColor=#d6b656;shadow=0;" parent="1" vertex="1">
          <mxGeometry x="970" y="610" width="580" height="100" as="geometry" />
        </mxCell>
        <mxCell id="ppWasWMKm3SrtxTAx-Xf-1" value="&lt;span style=&quot;font-size: 20px&quot;&gt;Operating System Windows, Linux, Mac OS X, ...&lt;br&gt;&lt;/span&gt;" style="rounded=0;whiteSpace=wrap;html=1;fontSize=30;fillColor=#f8cecc;strokeColor=#b85450;shadow=0;" parent="1" vertex="1">
          <mxGeometry x="170" y="710" width="1380" height="80" as="geometry" />
        </mxCell>
        <mxCell id="ppWasWMKm3SrtxTAx-Xf-2" value="O.S." style="text;html=1;strokeColor=none;fillColor=none;align=center;verticalAlign=middle;whiteSpace=wrap;rounded=0;fontSize=30;rotation=90;direction=east;fontColor=#FF9999;shadow=0;" parent="1" vertex="1">
          <mxGeometry x="45" y="740" width="70" height="20" as="geometry" />
        </mxCell>
        <mxCell id="ppWasWMKm3SrtxTAx-Xf-5" value="&lt;p style=&quot;line-height: 80%;&quot;&gt;&lt;font style=&quot;font-size: 20px&quot;&gt;PgSQL&lt;br&gt;&lt;span style=&quot;font-size: 15px&quot;&gt;Database provider plugin&lt;/span&gt;&lt;br&gt;&lt;/font&gt;&lt;/p&gt;" style="rounded=0;whiteSpace=wrap;html=1;fontSize=30;fillColor=#d5e8d4;strokeColor=#82b366;shadow=0;" parent="1" vertex="1">
          <mxGeometry x="370" y="210" width="180" height="100" as="geometry" />
        </mxCell>
        <mxCell id="ppWasWMKm3SrtxTAx-Xf-6" value="&lt;p style=&quot;line-height: 80%;&quot;&gt;&lt;span style=&quot;font-size: 20px;&quot;&gt;PgSQL&lt;/span&gt;&lt;br&gt;&lt;font style=&quot;font-size: 15px;&quot;&gt;PHP Extension&lt;/font&gt;&lt;/p&gt;" style="rounded=0;whiteSpace=wrap;html=1;fontSize=30;fillColor=#dae8fc;strokeColor=#6c8ebf;shadow=0;" parent="1" vertex="1">
          <mxGeometry x="370" y="410" width="180" height="200" as="geometry" />
        </mxCell>
        <mxCell id="ppWasWMKm3SrtxTAx-Xf-7" value="&lt;p style=&quot;line-height: 80%;&quot;&gt;&lt;span style=&quot;font-size: 20px;&quot;&gt;PostgreSQL&lt;/span&gt;&lt;br&gt;&lt;font style=&quot;font-size: 15px;&quot;&gt;DBMS&lt;/font&gt;&lt;/p&gt;" style="rounded=0;whiteSpace=wrap;html=1;fontSize=30;fillColor=#fff2cc;strokeColor=#d6b656;shadow=0;" parent="1" vertex="1">
          <mxGeometry x="370" y="610" width="180" height="100" as="geometry" />
        </mxCell>
        <mxCell id="Vv7ANgLEg7CVrzUhQt1U-1" value="&lt;p style=&quot;line-height: 80%;&quot;&gt;&lt;font style=&quot;font-size: 20px&quot;&gt;SQLite3&lt;br&gt;&lt;span style=&quot;font-size: 15px&quot;&gt;Database provider plugin&lt;/span&gt;&lt;br&gt;&lt;/font&gt;&lt;/p&gt;" style="rounded=0;whiteSpace=wrap;html=1;fontSize=30;fillColor=#d5e8d4;strokeColor=#82b366;shadow=0;" parent="1" vertex="1">
          <mxGeometry x="570" y="210" width="180" height="100" as="geometry" />
        </mxCell>
        <mxCell id="Vv7ANgLEg7CVrzUhQt1U-2" value="&lt;p style=&quot;line-height: 80%;&quot;&gt;&lt;span style=&quot;font-size: 20px;&quot;&gt;SQLite3&lt;/span&gt;&lt;br&gt;&lt;font style=&quot;font-size: 15px;&quot;&gt;PHP Extension&lt;/font&gt;&lt;/p&gt;" style="rounded=0;whiteSpace=wrap;html=1;fontSize=30;fillColor=#dae8fc;strokeColor=#6c8ebf;shadow=0;" parent="1" vertex="1">
          <mxGeometry x="570" y="410" width="180" height="100" as="geometry" />
        </mxCell>
        <mxCell id="Vv7ANgLEg7CVrzUhQt1U-3" value="&lt;p style=&quot;line-height: 80%;&quot;&gt;&lt;span style=&quot;font-size: 20px;&quot;&gt;SQLite3&lt;/span&gt;&lt;br&gt;&lt;font style=&quot;font-size: 15px;&quot;&gt;Database File&lt;/font&gt;&lt;/p&gt;" style="rounded=0;whiteSpace=wrap;html=1;fontSize=30;fillColor=#fff2cc;strokeColor=#d6b656;shadow=0;" parent="1" vertex="1">
          <mxGeometry x="570" y="610" width="180" height="100" as="geometry" />
        </mxCell>
        <mxCell id="Vv7ANgLEg7CVrzUhQt1U-4" value="&lt;p style=&quot;line-height: 80%;&quot;&gt;&lt;span style=&quot;font-size: 20px&quot;&gt;libsqlite3 (Linux)&lt;br&gt;libsqlite3.dll (Win.)&lt;br&gt;&lt;/span&gt;&lt;/p&gt;" style="rounded=0;whiteSpace=wrap;html=1;fontSize=30;fillColor=#f8cecc;strokeColor=#b85450;shadow=0;" parent="1" vertex="1">
          <mxGeometry x="570" y="510" width="180" height="100" as="geometry" />
        </mxCell>
        <mxCell id="InTzqCeOYvt8oBhlNlMZ-1" value="&lt;p style=&quot;line-height: 80%;&quot;&gt;&lt;font style=&quot;font-size: 20px&quot;&gt;MySQL&lt;br&gt;&lt;span style=&quot;font-size: 15px&quot;&gt;SQL Slang plugin&lt;/span&gt;&lt;br&gt;&lt;/font&gt;&lt;/p&gt;" style="rounded=0;whiteSpace=wrap;html=1;fontSize=30;fillColor=#d5e8d4;strokeColor=#82b366;shadow=0;" parent="1" vertex="1">
          <mxGeometry x="170" y="310" width="180" height="100" as="geometry" />
        </mxCell>
        <mxCell id="InTzqCeOYvt8oBhlNlMZ-2" value="&lt;p style=&quot;line-height: 80%;&quot;&gt;&lt;font style=&quot;font-size: 20px&quot;&gt;PgSQL&lt;br&gt;&lt;span style=&quot;font-size: 15px&quot;&gt;SQL Slang plugin&lt;/span&gt;&lt;br&gt;&lt;/font&gt;&lt;/p&gt;" style="rounded=0;whiteSpace=wrap;html=1;fontSize=30;fillColor=#d5e8d4;strokeColor=#82b366;shadow=0;" parent="1" vertex="1">
          <mxGeometry x="370" y="310" width="180" height="100" as="geometry" />
        </mxCell>
        <mxCell id="InTzqCeOYvt8oBhlNlMZ-3" value="&lt;p style=&quot;line-height: 80%;&quot;&gt;&lt;font style=&quot;font-size: 20px&quot;&gt;SQLite&lt;br&gt;&lt;span style=&quot;font-size: 15px&quot;&gt;SQL Slang plugin&lt;/span&gt;&lt;br&gt;&lt;/font&gt;&lt;/p&gt;" style="rounded=0;whiteSpace=wrap;html=1;fontSize=30;fillColor=#d5e8d4;strokeColor=#82b366;shadow=0;" parent="1" vertex="1">
          <mxGeometry x="570" y="310" width="180" height="100" as="geometry" />
        </mxCell>
        <mxCell id="InTzqCeOYvt8oBhlNlMZ-4" value="&lt;p style=&quot;line-height: 80%;&quot;&gt;&lt;font style=&quot;&quot;&gt;&lt;span style=&quot;font-size: 20px;&quot;&gt;(auto detected)&lt;/span&gt;&lt;br style=&quot;border-color: var(--border-color);&quot;&gt;&lt;font style=&quot;font-size: 15px;&quot;&gt;SQL Slang plugin&lt;/font&gt;&lt;br&gt;&lt;/font&gt;&lt;/p&gt;" style="rounded=0;whiteSpace=wrap;html=1;fontSize=30;fillColor=#d5e8d4;strokeColor=#82b366;shadow=0;" parent="1" vertex="1">
          <mxGeometry x="970" y="310" width="180" height="100" as="geometry" />
        </mxCell>
        <mxCell id="InTzqCeOYvt8oBhlNlMZ-5" value="&lt;p style=&quot;line-height: 80%;&quot;&gt;&lt;font style=&quot;font-size: 20px&quot;&gt;(auto detected)&lt;br style=&quot;border-color: var(--border-color); font-size: 30px;&quot;&gt;&lt;font style=&quot;border-color: var(--border-color); font-size: 15px;&quot;&gt;SQL Slang plugin&lt;/font&gt;&lt;br&gt;&lt;/font&gt;&lt;/p&gt;" style="rounded=0;whiteSpace=wrap;html=1;fontSize=30;fillColor=#d5e8d4;strokeColor=#82b366;shadow=0;" parent="1" vertex="1">
          <mxGeometry x="1170" y="310" width="180" height="100" as="geometry" />
        </mxCell>
        <mxCell id="KJECWvd8K1PhkzWFOMBU-1" value="&lt;p style=&quot;line-height: 80%;&quot;&gt;&lt;font style=&quot;font-size: 20px&quot;&gt;Oracle (OCI8)&lt;br&gt;&lt;span style=&quot;font-size: 15px&quot;&gt;Database provider plugin&lt;/span&gt;&lt;br&gt;&lt;/font&gt;&lt;/p&gt;" style="rounded=0;whiteSpace=wrap;html=1;fontSize=30;fillColor=#d5e8d4;strokeColor=#82b366;shadow=0;" parent="1" vertex="1">
          <mxGeometry x="770" y="210" width="180" height="100" as="geometry" />
        </mxCell>
        <mxCell id="KJECWvd8K1PhkzWFOMBU-2" value="&lt;p style=&quot;line-height: 80%;&quot;&gt;&lt;span style=&quot;font-size: 20px;&quot;&gt;OCI8&lt;/span&gt;&lt;br&gt;&lt;font style=&quot;font-size: 15px;&quot;&gt;PHP Extension&lt;/font&gt;&lt;/p&gt;" style="rounded=0;whiteSpace=wrap;html=1;fontSize=30;fillColor=#dae8fc;strokeColor=#6c8ebf;shadow=0;" parent="1" vertex="1">
          <mxGeometry x="770" y="410" width="180" height="100" as="geometry" />
        </mxCell>
        <mxCell id="KJECWvd8K1PhkzWFOMBU-3" value="&lt;p style=&quot;line-height: 80%;&quot;&gt;&lt;span style=&quot;font-size: 20px;&quot;&gt;Oracle&lt;/span&gt;&lt;br&gt;&lt;font style=&quot;font-size: 15px;&quot;&gt;DBMS&lt;/font&gt;&lt;/p&gt;" style="rounded=0;whiteSpace=wrap;html=1;fontSize=30;fillColor=#fff2cc;strokeColor=#d6b656;shadow=0;" parent="1" vertex="1">
          <mxGeometry x="770" y="610" width="180" height="100" as="geometry" />
        </mxCell>
        <mxCell id="KJECWvd8K1PhkzWFOMBU-4" value="&lt;p style=&quot;line-height: 80%;&quot;&gt;&lt;span style=&quot;font-size: 20px&quot;&gt;Oracle&lt;br&gt;Instant Client&lt;/span&gt;&lt;/p&gt;" style="rounded=0;whiteSpace=wrap;html=1;fontSize=30;fillColor=#f8cecc;strokeColor=#b85450;shadow=0;" parent="1" vertex="1">
          <mxGeometry x="770" y="510" width="180" height="100" as="geometry" />
        </mxCell>
        <mxCell id="KJECWvd8K1PhkzWFOMBU-5" value="&lt;p style=&quot;line-height: 80%;&quot;&gt;&lt;font style=&quot;font-size: 20px&quot;&gt;Oracle&lt;br&gt;&lt;span style=&quot;font-size: 15px&quot;&gt;SQL Slang plugin&lt;/span&gt;&lt;br&gt;&lt;/font&gt;&lt;/p&gt;" style="rounded=0;whiteSpace=wrap;html=1;fontSize=30;fillColor=#d5e8d4;strokeColor=#82b366;shadow=0;" parent="1" vertex="1">
          <mxGeometry x="770" y="310" width="180" height="100" as="geometry" />
        </mxCell>
        <mxCell id="OQT0X5HdhIb7dxfhtFS0-1" value="&lt;p style=&quot;line-height: 80%;&quot;&gt;&lt;font style=&quot;font-size: 20px&quot;&gt;ADO&lt;br&gt;&lt;span style=&quot;font-size: 15px&quot;&gt;Database provider plugin&lt;/span&gt;&lt;br&gt;&lt;/font&gt;&lt;/p&gt;" style="rounded=0;whiteSpace=wrap;html=1;fontSize=30;fillColor=#d5e8d4;strokeColor=#82b366;shadow=0;" parent="1" vertex="1">
          <mxGeometry x="1370" y="210" width="180" height="100" as="geometry" />
        </mxCell>
        <mxCell id="OQT0X5HdhIb7dxfhtFS0-2" value="&lt;p style=&quot;line-height: 80%;&quot;&gt;&lt;font style=&quot;font-size: 20px&quot;&gt;(auto detected)&lt;br style=&quot;border-color: var(--border-color); font-size: 30px;&quot;&gt;&lt;font style=&quot;border-color: var(--border-color); font-size: 15px;&quot;&gt;SQL Slang plugin&lt;/font&gt;&lt;br&gt;&lt;/font&gt;&lt;/p&gt;" style="rounded=0;whiteSpace=wrap;html=1;fontSize=30;fillColor=#d5e8d4;strokeColor=#82b366;shadow=0;" parent="1" vertex="1">
          <mxGeometry x="1370" y="310" width="180" height="100" as="geometry" />
        </mxCell>
        <mxCell id="OQT0X5HdhIb7dxfhtFS0-3" value="&lt;p style=&quot;line-height: 80%;&quot;&gt;&lt;span style=&quot;font-size: 20px;&quot;&gt;COM&lt;/span&gt;&lt;br&gt;&lt;font style=&quot;font-size: 15px;&quot;&gt;PHP Extension&lt;/font&gt;&lt;/p&gt;" style="rounded=0;whiteSpace=wrap;html=1;fontSize=30;fillColor=#dae8fc;strokeColor=#6c8ebf;shadow=0;spacing=2;" parent="1" vertex="1">
          <mxGeometry x="1370" y="410" width="180" height="70" as="geometry" />
        </mxCell>
        <mxCell id="OQT0X5HdhIb7dxfhtFS0-4" value="&lt;p style=&quot;line-height: 80%;&quot;&gt;&lt;span style=&quot;font-size: 20px;&quot;&gt;OLE DB Providers&lt;br&gt;&lt;/span&gt;&lt;span style=&quot;font-size: 20px&quot;&gt;(DBMS specific)&lt;br&gt;&lt;/span&gt;&lt;/p&gt;" style="rounded=0;whiteSpace=wrap;html=1;fontSize=30;fillColor=#f8cecc;strokeColor=#b85450;shadow=0;" parent="1" vertex="1">
          <mxGeometry x="1370" y="530" width="180" height="80" as="geometry" />
        </mxCell>
        <mxCell id="OQT0X5HdhIb7dxfhtFS0-6" value="&lt;p style=&quot;line-height: 80%;&quot;&gt;&lt;span style=&quot;font-size: 20px&quot;&gt;ADO&lt;br&gt;&lt;/span&gt;&lt;/p&gt;" style="rounded=0;whiteSpace=wrap;html=1;fontSize=30;fillColor=#f8cecc;strokeColor=#b85450;shadow=0;" parent="1" vertex="1">
          <mxGeometry x="1370" y="480" width="180" height="50" as="geometry" />
        </mxCell>
      </root>
    </mxGraphModel>
  </diagram>
</mxfile>
